<?xml version="1.0" standalone="no"?>
<!DOCTYPE svg PUBLIC "-//W3C//DTD SVG 20010904//EN"
 "http://www.w3.org/TR/2001/REC-SVG-20010904/DTD/svg10.dtd">
<svg version="1.0" xmlns="http://www.w3.org/2000/svg"
 width="500.000000pt" height="500.000000pt" viewBox="0 0 500.000000 500.000000"
 preserveAspectRatio="xMidYMid meet">

<g transform="translate(0.000000,500.000000) scale(0.100000,-0.100000)"
fill="#000000" stroke="none">
<path d="M940 2390 l0 -1530 908 2 907 3 0 335 0 335 -492 3 -493 2 0 285 0
285 455 0 455 0 0 335 0 335 -455 0 -455 0 0 240 0 240 495 0 495 0 0 330 0
330 -910 0 -910 0 0 -1530z"/>
<path d="M3290 2390 l0 -1530 415 0 415 0 0 1530 0 1530 -415 0 -415 0 0
-1530z"/>
</g>
</svg>
